<svg width="567" height="567" viewBox="0 0 567 567" fill="none" xmlns="http://www.w3.org/2000/svg">
<g clip-path="url(#clip0_202_149)">
<rect width="567" height="567" rx="96" fill="url(#paint0_radial_202_149)"/>
<g clip-path="url(#clip1_202_149)">
<path d="M96 283.5C96 179.947 179.947 96 283.5 96V96C387.053 96 471 179.947 471 283.5V283.5C471 387.053 387.053 471 283.5 471V471C179.947 471 96 387.053 96 283.5V283.5Z" fill="url(#paint1_linear_202_149)"/>
<path fill-rule="evenodd" clip-rule="evenodd" d="M283.5 283.5C283.5 335.277 325.473 377.25 377.25 377.25C429.027 377.25 471 335.277 471 283.5C471 387.053 387.053 471 283.5 471H110.146C104.926 471 102.311 464.689 106.003 460.997L146.774 420.226C149.063 417.938 149.055 414.234 146.839 411.876C115.313 378.328 96 333.169 96 283.5C96 231.723 137.973 189.75 189.75 189.75C241.527 189.75 283.5 231.723 283.5 283.5Z" fill="url(#paint2_linear_202_149)"/>
<path d="M189.75 189.75C241.527 189.75 283.5 231.723 283.5 283.5C283.5 335.277 325.473 377.25 377.25 377.25C429.027 377.25 471 335.277 471 283.5C471 179.947 387.053 96 283.5 96C179.947 96 96 179.947 96 283.5C96 231.723 137.973 189.75 189.75 189.75Z" fill="url(#paint3_linear_202_149)"/>
<path fill-rule="evenodd" clip-rule="evenodd" d="M377.009 219.049C377.275 222.274 379.881 224.875 383.101 225.195C412.714 228.131 435.844 253.114 435.844 283.5C435.844 315.86 409.61 342.094 377.25 342.094C375.775 342.094 374.445 342.999 373.877 344.36C367.251 360.234 351.581 371.391 333.305 371.391C324.124 371.391 315.601 368.575 308.551 363.761C305.177 361.457 300.225 362.321 297.939 365.707C288.463 379.741 272.411 388.969 254.203 388.969C228.907 388.969 207.771 371.157 202.651 347.392C201.913 343.964 198.651 341.528 195.159 341.847C193.378 342.01 191.574 342.094 189.75 342.094C157.39 342.094 131.156 315.86 131.156 283.5C131.156 251.14 157.39 224.906 189.75 224.906C191.225 224.906 192.555 224.001 193.123 222.64C199.749 206.766 215.419 195.609 233.695 195.609C235.121 195.609 236.532 195.677 237.923 195.81C240.668 196.072 243.367 194.697 244.65 192.255C256.411 169.865 279.891 154.594 306.938 154.594C343.797 154.594 374.033 182.957 377.009 219.049Z" fill="white"/>
</g>
</g>
<defs>
<radialGradient id="paint0_radial_202_149" cx="0" cy="0" r="1" gradientUnits="userSpaceOnUse" gradientTransform="translate(283.5 1.37942e-06) rotate(90) scale(567 434.109)">
<stop stop-color="white"/>
<stop offset="1" stop-color="#CFC6D6"/>
</radialGradient>
<linearGradient id="paint1_linear_202_149" x1="427.623" y1="429.059" x2="33.423" y2="305.479" gradientUnits="userSpaceOnUse">
<stop stop-color="#8800FF"/>
<stop offset="1" stop-color="#520099"/>
</linearGradient>
<linearGradient id="paint2_linear_202_149" x1="377.25" y1="471" x2="96" y2="189.75" gradientUnits="userSpaceOnUse">
<stop stop-color="#520099"/>
<stop offset="1" stop-color="#8800FF"/>
</linearGradient>
<linearGradient id="paint3_linear_202_149" x1="189.75" y1="96" x2="471" y2="377.25" gradientUnits="userSpaceOnUse">
<stop stop-color="#520099"/>
<stop offset="1" stop-color="#8800FF"/>
</linearGradient>
<clipPath id="clip0_202_149">
<rect width="567" height="567" fill="white"/>
</clipPath>
<clipPath id="clip1_202_149">
<rect width="375" height="375" fill="white" transform="translate(96 96)"/>
</clipPath>
</defs>
</svg>
